<?xml version="1.0" standalone="no"?>
<!DOCTYPE svg PUBLIC "-//W3C//DTD SVG 20010904//EN"
 "http://www.w3.org/TR/2001/REC-SVG-20010904/DTD/svg10.dtd">
<svg version="1.0" xmlns="http://www.w3.org/2000/svg"
 width="512.000000pt" height="512.000000pt" viewBox="0 0 512.000000 512.000000"
 preserveAspectRatio="xMidYMid meet">
<metadata>
Created by potrace 1.11, written by Peter Selinger 2001-2013
</metadata>
<g transform="translate(0.000000,512.000000) scale(0.100000,-0.100000)"
fill="#000000" stroke="none">
<path d="M4215 4878 c-215 -25 -398 -178 -470 -393 -29 -87 -34 -168 -19 -330
5 -55 9 -179 9 -275 0 -230 -9 -333 -51 -595 -2 -16 -20 -95 -39 -175 -20 -80
-37 -155 -40 -166 -3 -12 -23 -76 -45 -142 -132 -400 -315 -743 -541 -1017
l-82 -98 -129 134 c-72 74 -190 195 -264 270 -74 74 -134 138 -134 142 0 4 23
29 50 56 27 27 50 52 50 56 0 4 -21 28 -47 54 -27 26 -202 205 -390 397 -187
192 -418 428 -513 524 -461 471 -791 809 -950 972 l-175 180 -53 -54 c-111
-111 -164 -235 -164 -389 -1 -159 45 -274 156 -392 33 -36 224 -231 422 -434
199 -202 416 -424 483 -493 68 -69 281 -287 474 -484 194 -198 435 -445 537
-549 102 -104 209 -213 238 -241 28 -28 52 -54 52 -57 0 -3 -12 -19 -26 -35
-35 -40 -129 -201 -143 -246 -16 -50 -20 -145 -7 -188 50 -171 229 -273 481
-273 122 -1 166 5 273 33 40 11 74 20 77 20 14 0 2 -42 -19 -67 -91 -108 -93
-239 -3 -335 88 -95 245 -88 348 16 55 55 111 159 133 246 21 85 13 211 -19
305 l-28 79 24 19 c405 319 721 743 938 1257 46 109 125 330 136 378 2 9 13
51 25 92 20 71 75 324 86 400 3 19 7 45 9 58 2 13 7 53 11 90 3 37 8 76 10 87
22 113 22 719 0 910 -2 17 -7 55 -10 85 -15 129 -21 156 -53 228 -106 240
-340 371 -608 340z m206 -340 c201 -100 236 -361 69 -511 -172 -155 -453 -66
-506 160 -37 159 48 312 205 369 63 23 166 15 232 -18z m-1181 -3117 c99 -51
145 -129 145 -246 0 -69 -4 -86 -27 -125 -35 -60 -73 -94 -131 -120 -180 -80
-379 51 -379 247 0 112 73 220 176 257 60 22 160 16 216 -13z m295 -646 c13
-47 16 -84 12 -135 -15 -182 -154 -326 -226 -233 -24 29 -20 81 8 104 48 39
79 155 60 221 -7 25 -3 30 54 67 34 21 65 40 68 40 4 1 15 -28 24 -64z"/>
<path d="M4235 4404 c-90 -31 -127 -118 -90 -212 21 -52 80 -86 149 -84 145 3
202 199 81 278 -39 25 -98 33 -140 18z"/>
<path d="M3052 1274 c-50 -34 -63 -110 -30 -164 20 -31 75 -53 117 -46 55 8
91 54 91 115 0 42 -5 54 -31 80 -25 26 -38 31 -78 31 -26 0 -56 -7 -69 -16z"/>
<path d="M655 4690 l-110 -109 45 -47 c25 -25 112 -114 193 -197 82 -84 283
-289 447 -457 164 -168 349 -357 412 -421 62 -63 266 -272 453 -463 187 -191
382 -390 432 -442 51 -52 96 -94 101 -94 4 0 55 48 114 108 l107 107 -206 210
c-113 116 -362 370 -553 565 -191 195 -387 396 -435 445 -48 50 -257 263 -464
474 -207 211 -386 395 -399 408 -13 12 -24 23 -25 22 -1 0 -51 -49 -112 -109z"/>
</g>
</svg>
